<?xml version="1.0"?>
<svg xmlns="http://www.w3.org/2000/svg" height="512px" viewBox="-99 -41 1331 1331.2499" width="512px"><path d="m1124.59375 1024.648438-173.46875-300.433594c16.542969-24.957032 30.683594-51.503906 42.273438-79.507813 23.652343-57.082031 35.640624-117.351562 35.640624-179.148437 0-258.128906-210-468.140625-468.140624-468.140625-258.125 0-468.125 210.011719-468.125 468.140625 0 95.46875 28.742187 184.34375 78.003906 258.453125l-173.558594 300.636719c-4.925781 8.53125-4.230469 19.214843 1.777344 27.042968 6 7.816406 16.132812 11.246094 25.652344 8.691406l226.503906-60.839843 62.796875 228.027343c2.613281 9.472657 10.65625 16.449219 20.410156 17.699219 1.03125.128907 2.070313.195313 3.101563.195313 8.617187 0 16.714843-4.578125 21.097656-12.1875l173.488281-300.503906c9.546875.585937 19.160156.917968 28.851563.917968 9.660156 0 19.277343-.3125 28.867187-.902344l173.488281 300.484376c4.382813 7.613281 12.46875 12.1875 21.097656 12.1875 1.050782 0 2.117188-.070313 3.199219-.214844 9.777344-1.289063 17.8125-8.339844 20.355469-17.867188l60.566406-226.578125 228.867188 59.628907c9.519531 2.476562 19.574218-.996094 25.542968-8.820313 5.945313-7.8125 6.625-18.449219 1.710938-26.960937zm-779.113281 133.789062-53.75-195.195312c-3.554688-12.917969-16.875-20.539063-29.824219-17.0625l-193.011719 51.839843 133.683594-231.566406c69.308594 82.386719 166.417969 140.652344 276.753906 160.121094zm511.84375-210.917969c-12.96875-3.386719-26.226563 4.335938-29.695313 17.285157l-51.609375 193.09375-133.578125-231.355469c28.921875-5.109375 57.359375-12.9375 85.058594-23.484375 12.597656-4.796875 18.90625-18.882813 14.117188-31.460938-4.789063-12.582031-18.871094-18.894531-31.449219-14.101562-47.863281 18.222656-98.078125 27.453125-149.269531 27.453125-231.246094 0-419.375-188.136719-419.375-419.390625 0-231.25 188.128906-419.386719 419.375-419.386719 231.261718 0 419.390624 188.136719 419.390624 419.386719 0 87.894531-26.855468 171.648437-76.679687 241.917968-.792969.929688-1.503906 1.890626-2.125 2.910157-13.144531 18.21875-27.835937 35.523437-44.023437 51.714843-9.519532 9.519532-9.519532 24.957032-.015626 34.476563 9.523438 9.523437 24.957032 9.523437 34.480469 0 9.617188-9.613281 18.738281-19.597656 27.421875-29.925781l133.886719 231.898437zm0 0" fill="#6963ff"/><path d="m855.121094 721.464844c59.722656-68.546875 95.917968-158.074219 95.917968-255.90625 0-215.121094-175.011718-390.132813-390.140624-390.132813-215.113282 0-390.125 175.011719-390.125 390.132813 0 97.832031 36.195312 187.359375 95.902343 255.90625 1.070313 1.53125 2.300781 2.929687 3.710938 4.195312 71.484375 79.757813 175.230469 130.03125 290.511719 130.03125 115.296874 0 219.039062-50.273437 290.527343-130.03125 1.410157-1.265625 2.640625-2.664062 3.695313-4.195312zm-294.222656-597.289063c188.246093 0 341.390624 153.144531 341.390624 341.382813 0 74.460937-23.972656 143.421875-64.601562 199.59375-29.660156-42.992188-69.0625-78.71875-114.746094-103.960938 25.351563-33.800781 40.382813-75.78125 40.382813-121.183594v-88.75c0-.074218 0-.148437 0-.226562v-.042969c0-111.625-90.792969-202.4375-202.425781-202.4375-13.464844 0-24.375 10.921875-24.375 24.375 0 13.46875 10.910156 24.375 24.375 24.375 78.554687 0 143.496093 59.269531 152.550781 135.425781-28.386719 3.972657-65.347657-6.847656-89.933594-35.921874-8.191406-9.699219-22.488281-11.480469-32.8125-4.070313-44.730469 32.066406-127.113281 67.59375-182.789063 43.9375 2.238282-23.742187 9.988282-46.671875 22.785157-67.015625 7.15625-11.402344 3.730469-26.460938-7.65625-33.621094-11.40625-7.167968-26.449219-3.738281-33.613281 7.65625-20.25 32.195313-30.957032 69.308594-30.957032 107.296875v89.019531c0 45.402344 15.039063 87.382813 40.378906 121.183594-45.664062 25.242188-85.085937 60.96875-114.730468 103.964844-40.625-56.175781-64.605469-125.136719-64.605469-199.597656.007813-188.238282 153.152344-341.382813 341.382813-341.382813zm-153.675782 263.808594c13.675782 3.703125 27.808594 5.332031 42.039063 5.332031 55.769531 0 113.289062-25.007812 152.46875-49.378906 31.46875 27.507812 73.957031 41.445312 112.851562 37.753906v58.316406c0 42.957032-17.746093 81.839844-46.257812 109.75-.089844.078126-2.980469 2.792969-3.207031 3.0625-27.410157 25.339844-64.023438 40.863282-104.203126 40.863282-40.199218 0-76.820312-15.539063-104.242187-40.890625-.195313-.21875-3.09375-2.957031-3.175781-3.03125-28.519532-27.914063-46.273438-66.796875-46.273438-109.753907zm55.535156 228.976563c12.246094 6.828124 25.261719 12.425781 38.894532 16.601562l-38.894532 30.53125zm196.296876 0v47.132812l-38.894532-30.53125c13.632813-4.175781 26.648438-9.773438 38.894532-16.601562zm-342.164063 87.089843c24.324219-39.074219 57.773437-71.871093 97.117187-95.386719v105.546876c0 9.3125 5.324219 17.828124 13.710938 21.914062 3.386719 1.648438 7.027344 2.460938 10.65625 2.460938 5.367188 0 10.667969-1.777344 15.046875-5.207032l83.101563-65.214844v137.898438c-85.800782-6.082031-162.929688-44.015625-219.632813-102.011719zm268.382813 102.011719v-137.898438l83.117187 65.214844c7.332031 5.761719 17.328125 6.824219 25.703125 2.746094 8.386719-4.085938 13.710938-12.589844 13.710938-21.914062v-105.539063c39.34375 23.507813 72.792968 56.304687 97.117187 95.378906-56.703125 57.996094-133.832031 95.929688-219.648437 102.011719zm0 0" fill="#6963ff"/><path d="m457.984375 230.300781c4.921875 0 9.878906-1.476562 14.175781-4.566406l.730469-.511719c10.972656-7.804687 13.546875-23.007812 5.753906-33.996094-7.804687-10.972656-23.019531-13.542968-33.984375-5.746093l-.894531.632812c-10.949219 7.84375-13.46875 23.078125-5.621094 34.015625 4.765625 6.644532 12.242188 10.171875 19.839844 10.171875zm0 0" fill="#6963ff"/><path d="m498.910156 476.542969h.566406c13.472657 0 24.375-10.910157 24.375-24.375 0-13.460938-10.902343-24.375-24.375-24.375h-.566406c-13.460937 0-24.375 10.914062-24.375 24.375 0 13.464843 10.914063 24.375 24.375 24.375zm0 0" fill="#6963ff"/><path d="m622.316406 476.542969h.570313c13.460937 0 24.375-10.910157 24.375-24.375 0-13.460938-10.914063-24.375-24.375-24.375h-.570313c-13.464844 0-24.375 10.914062-24.375 24.375 0 13.464843 10.910156 24.375 24.375 24.375zm0 0" fill="#6963ff"/><path d="m802.871094 808.113281-.808594.566407c-10.914062 7.890624-13.40625 23.148437-5.523438 34.0625 4.769532 6.601562 12.226563 10.121093 19.78125 10.121093 4.925782 0 9.910157-1.507812 14.207032-4.613281l.804687-.574219c10.917969-7.890625 13.410157-23.148437 5.527344-34.054687-7.890625-10.917969-23.085937-13.394532-33.988281-5.507813zm0 0" fill="#6963ff"/></svg>
