<?xml version="1.0"?>
<svg xmlns="http://www.w3.org/2000/svg" height="512px" viewBox="-14 0 477 477.05657" width="512px"><path d="m190.816406 24.128906c-3.125-3.121094-8.1875-3.121094-11.3125 0l-33.941406 33.9375c-.082031.078125-.113281.199219-.195312.285156-.5625.609376-1.027344 1.304688-1.375 2.058594-.054688.125-.136719.230469-.183594.367188-.035156.054687-.066406.117187-.097656.175781l-78.589844 213.320313-44 44c-28.121094 28.113281-28.125 73.703124-.007813 101.824218 28.113281 28.121094 73.703125 28.121094 101.824219.007813l5.65625-5.65625 50.910156 50.910156c15.632813 15.597656 40.9375 15.597656 56.570313 0l11.308593-11.308594c3.125-3.125 3.125-8.191406 0-11.3125l-70.351562-70.351562 203.203125-74.875c.0625 0 .117187-.070313.183594-.09375.0625-.023438.230469-.128907.359375-.191407.753906-.347656 1.445312-.8125 2.054687-1.378906.089844-.078125.207031-.101562.296875-.191406l33.9375-33.941406c3.121094-3.125 3.121094-8.191406 0-11.3125zm-36.414062 54.097656 208.589844 208.589844-198.398438 73.105469-83.289062-83.28125zm-121.984375 330.574219c-21.875-21.871093-21.875-57.328125 0-79.199219l39.597656-39.601562 79.199219 79.199219-39.597656 39.601562c-21.890626 21.824219-57.3125 21.824219-79.199219 0zm192.335937 45.257813c-9.375 9.371094-24.574218 9.371094-33.945312 0l-50.910156-50.914063 16.964843-16.96875 5.65625-5.65625 67.890625 67.882813zm152.726563-175.363282-214.953125-214.972656 22.632812-22.625 214.960938 214.960938zm0 0" fill="#6963ff"/><path d="m404.808594 44.410156c-28.460938-28.5625-67.167969-44.550781-107.488282-44.410156-4.417968 0-8 3.582031-8 8s3.582032 8 8 8c36.058594-.046875 70.652344 14.253906 96.148438 39.75s39.796875 60.089844 39.746094 96.148438c0 4.417968 3.582031 8 8 8 4.421875 0 8-3.582032 8-8 .144531-40.324219-15.84375-79.027344-44.40625-107.488282zm0 0" fill="#6963ff"/><path d="m359.550781 89.664062c16.554688 16.480469 25.847657 38.882813 25.824219 62.242188 0 4.417969 3.582031 8 8 8 4.421875 0 8-3.582031 8-8-.09375-57.398438-46.601562-103.90625-104-104-4.417969 0-8 3.582031-8 8s3.582031 8 8 8c23.328125-.019531 45.699219 9.25 62.175781 25.757812zm0 0" fill="#6963ff"/></svg>
