<?xml version="1.0"?>
<svg xmlns="http://www.w3.org/2000/svg" height="512px" viewBox="-48 0 480 480.00334" width="512px"><path d="m296 152.003906h-208c-4.417969 0-8 3.582032-8 8v232c0 4.417969 3.582031 8 8 8h32v48c0 17.671875 14.328125 32 32 32 17.675781 0 32-14.328125 32-32v-48h16v48c0 17.671875 14.328125 32 32 32 17.675781 0 32-14.328125 32-32v-48h32c4.421875 0 8-3.582031 8-8v-232c0-4.417968-3.578125-8-8-8zm-8 232h-32c-4.417969 0-8 3.582032-8 8v56c0 8.835938-7.160156 16-16 16-8.835938 0-16-7.164062-16-16v-56c0-4.417968-3.578125-8-8-8h-32c-4.417969 0-8 3.582032-8 8v56c0 8.835938-7.160156 16-16 16-8.835938 0-16-7.164062-16-16v-56c0-4.417968-3.578125-8-8-8h-32v-216h192zm0 0" fill="#6963ff"/><path d="m32 168.003906c-17.671875 0-32 14.328125-32 32v112c0 17.671875 14.328125 32 32 32 17.675781 0 32-14.328125 32-32v-112c0-17.671875-14.324219-32-32-32zm16 144c0 8.835938-7.160156 16-16 16-8.835938 0-16-7.164062-16-16v-112c0-8.835937 7.164062-16 16-16 8.839844 0 16 7.164063 16 16zm0 0" fill="#6963ff"/><path d="m352 168.003906c-17.671875 0-32 14.328125-32 32v112c0 17.671875 14.328125 32 32 32 17.675781 0 32-14.328125 32-32v-112c0-17.671875-14.324219-32-32-32zm16 144c0 8.835938-7.160156 16-16 16-8.835938 0-16-7.164062-16-16v-112c0-8.835937 7.164062-16 16-16 8.839844 0 16 7.164063 16 16zm0 0" fill="#6963ff"/><path d="m240.234375 25.433594 6.96875-13.855469c1.972656-3.953125.367187-8.761719-3.585937-10.734375-3.953126-1.976562-8.761719-.371094-10.734376 3.582031l-7.664062 15.34375c-8.183594-2.445312-16.675781-3.714843-25.21875-3.765625h-16c-11.074219.058594-22.050781 2.136719-32.382812 6.128906-.085938-.585937-.238282-1.15625-.457032-1.707031l-8-16c-1.972656-3.953125-6.78125-5.558593-10.734375-3.582031-3.953125 1.972656-5.558593 6.78125-3.585937 10.734375l8 16c.230468.40625.5.789063.800781 1.144531-35.390625 20.601563-57.296875 58.332032-57.640625 99.28125 0 4.417969 3.582031 8 8 8h208c4.421875 0 8-3.582031 8-8-.308594-43.453125-24.9375-83.066406-63.765625-102.570312zm-143.898437 94.570312c4-47.730468 43.25-88 87.664062-88h16c44.417969 0 83.664062 40.269532 87.664062 88zm0 0" fill="#6963ff"/><path d="m168 64.003906c-4.417969 0-8 3.582032-8 8v8c0 4.417969 3.582031 8 8 8 4.421875 0 8-3.582031 8-8v-8c0-4.417968-3.578125-8-8-8zm0 0" fill="#6963ff"/><path d="m216 64.003906c-4.417969 0-8 3.582032-8 8v8c0 4.417969 3.582031 8 8 8 4.421875 0 8-3.582031 8-8v-8c0-4.417968-3.578125-8-8-8zm0 0" fill="#6963ff"/></svg>
