<svg height="512pt" viewBox="-1 0 512 512" width="512pt" xmlns="http://www.w3.org/2000/svg"><path d="m42 512c-.304688 0-.613281 0-.929688-.007812-12.816406-.214844-23.335937-16.488282-25.011718-38.691407-.960938-12.679687-3.445313-24.96875-6.074219-37.988281-2.347656-11.621094-4.769531-23.644531-6-35.925781-5.382813-53.910157-8.257813-117.644531 11.28125-181.621094 1.101563-3.609375 2.277344-7.21875 3.523437-10.808594 8.023438-23.1875 16.941407-40.789062 28.074219-55.398437 28.851563-37.871094 78.738281-54.460938 152.507813-50.550782 25.878906 1.355469 67.136718 6.988282 91.960937 12.570313 22.980469 5.152344 46.8125 6.988281 70.84375 5.433594 35.171875-2.277344 75.355469-12.371094 97.710938-24.550781 13.082031-7.113282 28.65625-5.179688 39.664062 4.96875 10.761719 9.914062 13.917969 24.914062 8.03125 38.21875-7.835937 17.707031-24.492187 39.289062-49.527343 64.136718-6.972657 6.929688-16.085938 16.125-24.722657 25.777344-23.039062 25.769531-106.648437 114.148438-215.207031 169.410156-21.835938 11.109375-43.816406 18.765625-65.347656 22.730469-22.183594 4.089844-52.28125 16.667969-69.730469 53.308594-.511719 1.066406-.90625 2.644531-1.441406 4.472656-3.023438 10.351563-10.078125 34.515625-39.605469 34.515625zm-10.410156-289.25c-18.660156 61.089844-15.835938 122.714844-10.613282 174.9375 1.140626 11.4375 3.480469 23.03125 5.742188 34.253906 2.609375 12.953125 5.316406 26.34375 6.355469 40.082032 1.09375 14.429687 6.589843 22.167968 8.695312 22.96875 15.632813-.03125 19.730469-9.539063 23.457031-22.304688.785157-2.695312 1.46875-5.027344 2.417969-7.023438 21.621094-45.421874 60.6875-58.808593 82.046875-62.753906 19.90625-3.675781 40.335938-10.792968 60.703125-21.152344 105.921875-53.914062 187.6875-140.363281 210.234375-165.570312 8.933594-9.984375 18.277344-19.414062 25.417969-26.503906 23.519531-23.347656 38.972656-43.175782 45.945313-58.929688 3.496093-7.902344.230468-14.875-3.988282-18.765625-4.417968-4.070312-11.96875-6.867187-19.941406-2.523437-28.515625 15.519531-73.171875 24.539062-104.777344 26.589844-25.660156 1.636718-51.125-.308594-75.683594-5.820313-24.054687-5.402344-64.03125-10.863281-89.117187-12.175781-68.675781-3.628906-112.519531 10.339844-138.035156 43.851562-10 13.121094-18.105469 29.214844-25.515625 50.632813-1.191406 3.390625-2.300782 6.792969-3.34375 10.207031zm0 0"/><path d="m58.28125 426.660156c-.722656 0-1.449219-.09375-2.175781-.28125-3.15625-.835937-5.570313-3.398437-6.195313-6.605468-.144531-.742188-.425781-1.980469-.800781-3.636719-3.898437-17.414063-15.769531-70.40625-7.730469-110.605469.921875-4.617188 5.425782-7.621094 10.042969-6.691406 4.625.921875 7.621094 5.417968 6.691406 10.042968-4.429687 22.128907-2.691406 52.957032 5.144531 91.75 29.992188-28.023437 64.195313-37 78.683594-39.671874 17.058594-3.148438 35.148438-11.644532 49.007813-18.6875 4.195312-2.140626 9.332031-.46875 11.476562 3.738281 2.132813 4.199219.460938 9.335937-3.738281 11.476562-14.882812 7.578125-34.421875 16.71875-53.648438 20.265625-14.589843 2.691406-51.625 12.5625-80.28125 45.953125-1.644531 1.894531-4.027343 2.953125-6.476562 2.953125zm0 0"/><path d="m58.28125 247.460938c-.921875 0-1.867188-.152344-2.789062-.476563-4.453126-1.535156-6.816407-6.398437-5.273438-10.855469 6.339844-18.320312 22.117188-47.605468 30.582031-58.722656 17.03125-22.367188 46.933594-32.34375 96.945313-32.34375 4.710937 0 8.535156 3.824219 8.535156 8.535156 0 4.710938-3.824219 8.53125-8.535156 8.53125-44.160156 0-69.867188 7.902344-83.367188 25.617188-7.5625 9.933594-22.28125 37.332031-28.03125 53.972656-1.222656 3.535156-4.53125 5.742188-8.066406 5.742188zm0 0"/><path d="m271.613281 93.863281c-4.710937 0-8.535156-3.820312-8.535156-8.53125 0-23.527343-19.140625-42.667969-42.664063-42.667969-4.710937 0-8.535156-3.820312-8.535156-8.53125 0-4.710937 3.824219-8.535156 8.535156-8.535156 32.9375 0 59.730469 26.796875 59.730469 59.734375 0 4.710938-3.820312 8.53125-8.53125 8.53125zm0 0"/><path d="m305.746094 93.863281c-4.710938 0-8.535156-3.820312-8.535156-8.53125 0-4.710937 3.824218-8.535156 8.535156-8.535156 23.523437 0 42.664062-19.136719 42.664062-42.664063 0-4.710937 3.824219-8.535156 8.535156-8.535156 4.710938 0 8.53125 3.824219 8.53125 8.535156 0 32.9375-26.800781 59.730469-59.730468 59.730469zm0 0"/><path d="m305.738281 341.328125c-2.015625 0-4.046875-.707031-5.667969-2.152344-3.523437-3.128906-3.839843-8.523437-.707031-12.046875 62.589844-70.417968 18.507813-131.71875 16.605469-134.296875-2.800781-3.777343-2.023438-9.121093 1.75-11.929687 3.769531-2.816406 9.09375-2.046875 11.917969 1.714844.554687.734374 54.554687 74.785156-17.515625 155.859374-1.691406 1.886719-4.03125 2.851563-6.382813 2.851563zm0 0"/><path d="m305.746094 133.46875c-.445313 0-.878906-.035156-1.324219-.101562-5.632813-.890626-11.253906-1.886719-16.835937-3.140626-5.164063-1.160156-11.152344-2.3125-17.46875-3.433593-4.070313-.714844-7.039063-4.265625-7.039063-8.394531v-92.800782c0-14.113281 11.488281-25.597656 25.601563-25.597656 14.113281 0 25.597656 11.484375 25.597656 25.597656v99.335938c0 2.492187-1.089844 4.863281-2.984375 6.484375-1.5625 1.332031-3.535157 2.050781-5.546875 2.050781zm-14.414063-19.890625c1.953125.433594 3.917969.84375 5.878907 1.226563v-89.207032c0-4.699218-3.820313-8.53125-8.53125-8.53125-4.710938 0-8.535157 3.832032-8.535157 8.53125v85.683594c3.984375.75 7.757813 1.519531 11.1875 2.296875zm0 0"/><path d="m246.011719 511.992188c-14.113281 0-25.597657-11.488282-25.597657-25.601563v-104.878906c0-3.125 1.695313-5.992188 4.4375-7.484375 11.066407-6.050782 22.390626-12.75 33.652344-19.890625 2.628906-1.671875 5.957032-1.777344 8.6875-.273438 2.730469 1.5 4.421875 4.367188 4.421875 7.476563v125.050781c0 14.113281-11.488281 25.601563-25.601562 25.601563zm-8.53125-125.445313v99.84375c0 4.703125 3.820312 8.535156 8.53125 8.535156 4.710937 0 8.535156-3.832031 8.535156-8.535156v-109.753906c-5.71875 3.441406-11.417969 6.75-17.066406 9.910156zm0 0"/><path d="m117.375 124.644531c-2.757812 0-5.402344-1.339843-7.023438-3.6875-8.019531-11.621093-21.101562-18.558593-35.003906-18.558593h-8.53125c-14.113281 0-25.601562-11.484376-25.601562-25.601563 0-14.113281 11.488281-25.597656 25.601562-25.597656h8.53125c36.761719 0 70.324219 21.707031 85.496094 55.3125 1.140625 2.527343.980469 5.445312-.417969 7.824219-1.402343 2.390624-3.875 3.949218-6.632812 4.191406-12.363281 1.058594-23.855469 3.019531-34.164063 5.816406-.753906.207031-1.503906.300781-2.253906.300781zm-50.558594-56.378906c-4.710937 0-8.535156 3.832031-8.535156 8.53125 0 4.703125 3.824219 8.535156 8.535156 8.535156h8.53125c17.503906 0 34.058594 7.808594 45.371094 21.128907 5.964844-1.417969 12.238281-2.585938 18.757812-3.5-14.054687-21.390626-38.117187-34.695313-64.128906-34.695313zm0 0"/><path d="m399.609375 401.058594h-17.066406c-40.046875 0-75.707031-25.480469-88.71875-63.410156-1.210938-3.53125.015625-7.449219 3.027343-9.648438 9.730469-7.125 19.609376-14.738281 29.371094-22.632812 2.441406-1.96875 5.789063-2.449219 8.679688-1.226563 2.902344 1.21875 4.890625 3.933594 5.179687 7.074219 2.058594 22.039062 20.308594 38.65625 42.460938 38.65625h17.066406c14.113281 0 25.601563 11.484375 25.601563 25.597656s-11.488282 25.589844-25.601563 25.589844zm-87.414063-63.1875c12.117188 27.820312 39.65625 46.121094 70.347657 46.121094h17.066406c4.710937 0 8.535156-3.828126 8.535156-8.53125 0-4.703126-3.824219-8.535157-8.535156-8.535157h-17.066406c-25.972657 0-48.125-16.324219-56.328125-39.753906-4.675782 3.652344-9.359375 7.226563-14.019532 10.699219zm0 0"/></svg>