<?xml version="1.0" encoding="iso-8859-1"?>
<!-- Generator: Adobe Illustrator 19.0.0, SVG Export Plug-In . SVG Version: 6.00 Build 0)  -->
<svg version="1.1" id="Layer_1" xmlns="http://www.w3.org/2000/svg" xmlns:xlink="http://www.w3.org/1999/xlink" x="0px" y="0px"
	 viewBox="0 0 461.409 461.409" style="enable-background:new 0 0 461.409 461.409;" xml:space="preserve">
<g>
	<g>
		<g>
			<path d="M461.361,418.096l-3.072-56.832c-1.536-35.84-6.656-71.168-14.848-105.984l-7.68-32.256
				c-9.216-40.448-30.208-76.8-60.416-105.472l-66.048-62.464c-5.632-5.12-12.8-6.656-19.968-4.608
				c-6.656,2.048-12.288,7.68-13.824,14.848l-7.168,29.184c-2.636,10.835-5.437,22.844-7.833,35.067
				c-3.038-28.306-3.81-57.03-1.895-85.755l0.512-6.144c0.23-1.382-0.061-2.658-0.727-3.646
				c-1.327-6.487-9.056-12.738-28.457-12.738c-26.112,0-28.16,10.752-28.16,14.336c0,0.266,0.035,0.514,0.065,0.764
				c-0.03,0.253-0.065,0.503-0.065,0.772l1.536,18.432c0.854,13.1,1.216,26.197,1.12,39.209c-0.056,0.228-0.096,0.467-0.096,0.727
				c0,0.3,0.023,0.65,0.081,1.037c-0.105,9.787-0.462,19.526-1.105,29.171l-0.512,4.608c-0.427,7.898-1.846,15.614-4.157,23.007
				c-0.15-0.846-0.301-1.701-0.451-2.527L182.32,65.84c-1.536-7.168-6.656-12.8-13.824-14.848
				c-7.168-2.56-14.336-0.512-19.968,4.096l-56.832,51.2c-29.696,26.112-51.2,60.416-61.952,98.304l-12.288,41.984
				c-10.24,34.816-15.36,70.656-16.384,106.496l-1.024,65.024c-0.512,7.168,3.072,13.312,8.704,17.408
				c3.584,2.56,7.68,3.584,11.776,3.584c2.56,0,5.12-0.512,7.68-1.536l39.424-15.872c17.408-6.656,35.328-12.8,53.76-16.896
				l22.528-5.632c36.864-9.216,62.976-41.984,62.976-79.872v-73.216c0-9.212-0.461-18.423-0.944-27.635
				c6.848-6.625,12.568-13.57,16.816-21.005c3.881-6.375,7.004-13.054,9.384-20.03c2.336,6.095,5.348,11.92,9.048,17.47
				c3.375,5.304,7.554,10.15,12.358,14.653c-0.042,0.235-0.07,0.471-0.07,0.707c0,10.24,0,20.992,0.512,31.232l4.096,84.992
				c1.536,36.352,29.184,67.072,65.536,72.192l14.336,2.048c23.552,3.072,46.592,10.752,67.584,22.528l25.6,14.336
				c3.072,1.536,6.144,2.56,9.728,2.56c3.584,0,7.68-1.024,10.752-3.584C458.289,432.432,461.873,425.776,461.361,418.096z
				 M229.937,31.536c12.8,0,18.432,3.584,18.432,4.608c0,0.317,0.035,0.616,0.078,0.911c-2.819,1.989-8.769,3.533-18.51,3.185
				c-8.704-0.512-13.824-2.048-16.384-3.072c-0.455-0.304-1.001-0.653-1.543-1.047c-0.006-0.03-0.02-0.059-0.027-0.089
				c0.008-0.135,0.034-0.261,0.034-0.4C212.017,35.12,215.601,31.536,229.937,31.536z M446.513,428.336
				c-3.072,2.048-7.168,2.56-10.24,0.512l-25.6-14.336c-22.016-12.288-46.08-20.48-71.168-24.064l-14.336-2.048
				c-31.232-4.608-55.296-31.232-56.832-62.976l-4.096-84.48c-0.384-7.673-0.48-15.346-0.504-23.02
				c2.619,1.927,5.347,3.796,8.184,5.612c0.512,0.512,1.536,0.512,2.56,0.512c1.536,0,3.072-0.512,4.096-2.048
				c1.536-2.56,1.024-5.632-1.536-7.168c-11.264-7.168-20.992-15.872-27.648-25.6c-6.656-9.728-10.24-19.456-12.288-31.232
				c0-1.44-0.973-2.719-2.28-3.47c-0.667-0.558-1.467-0.966-2.328-1.138c-2.56-0.512-5.12,1.536-5.632,4.096
				c-1.536,12.288-6.144,24.064-12.288,34.816c-5.632,9.728-13.824,18.432-24.064,26.624l-4.608,3.584
				c-2.56,1.536-2.56,5.12-1.024,7.168c1.024,1.536,2.56,2.048,4.096,2.048c1.024,0,2.048,0,2.56-1.024l4.575-3.558
				c0.307,6.378,0.545,12.897,0.545,19.43v73.216c0,33.28-22.528,61.952-55.296,69.632l-22.528,5.632
				c-18.432,4.096-36.864,10.24-54.784,17.408l-39.424,15.872c-2.005,0.859-3.848,1.057-5.623,0.724l24.055-26.324
				c4.608-5.12,9.216-9.728,14.336-13.824c1.024-1.024,1.024-2.56,0-3.584s-2.56-1.024-3.584,0
				c-4.608,4.608-9.728,9.216-14.336,14.336l-24.984,27.34c-2.789-2.042-4.201-4.982-4.201-8.396l1.024-65.024
				c0.792-27.314,4.046-54.319,10.445-80.784c2.337,14.791,7.306,29.177,14.643,42.384c0.512,1.024,1.024,1.536,2.048,1.536
				c0.512,0,1.024,0,1.024,0c1.024-1.024,1.536-2.56,1.024-3.584c-9.279-16.625-14.464-35.003-15.127-54.03
				c0.904-3.16,1.839-6.315,2.839-9.458l3.799-12.978c1.566,3.97,3.706,7.648,6.441,10.93c9.728,11.264,25.088,18.432,46.592,20.48
				c5.12,1.024,10.752,1.024,15.872,1.024c3.072,0,5.632,0,7.68,0.512c1.536,0,2.56-1.024,2.56-2.56s-1.024-2.56-2.56-2.56
				c-7.68,0.512-15.36,0-23.04-0.512c-19.968-2.048-34.304-8.192-43.008-18.944c-4.014-4.94-6.714-10.817-7.896-17.395l5.848-19.981
				c10.24-36.352,30.72-68.608,58.88-93.696l56.832-51.2c2.56-2.56,6.144-3.072,9.728-2.048c3.072,1.024,5.632,3.584,6.656,7.168
				l0.883,4.727c-0.236,0.394-0.371,0.871-0.371,1.417l4.608,76.8c0.512,5.632,1.024,11.776,1.024,17.408
				c0,1.536,1.024,2.56,2.56,2.56s2.56-1.536,2.56-2.56c-0.512-5.632-0.512-11.776-1.024-17.408l-2.485-41.418l8.117,43.466
				c1.024,5.632,2.048,11.264,3.072,16.896c0,0.117,0.013,0.231,0.026,0.345c-2.258,4.158-4.829,8.152-7.706,11.943
				c-1.536,2.048-1.024,5.632,1.024,7.168c1.024,0.512,2.048,1.024,3.072,1.024c1.536,0,3.072-0.512,4.096-2.048
				c12.288-16.384,19.456-36.352,20.992-56.832l0.512-4.608c0.451-7.058,0.753-14.115,0.939-21.16
				c1.375,0.449,2.928,0.853,4.693,1.192c1.024,0,2.048-0.512,2.56-2.048c0.512-1.536-0.512-3.072-2.048-3.072
				c-1.912-0.319-3.625-0.786-5.078-1.356c0.203-11.913,0.026-23.779-0.527-35.537c4.151,1.34,9.506,2.077,15.846,2.077
				c1.536,0,2.56-1.024,2.56-2.56c0-1.536-1.024-2.56-2.56-2.56c-7.436,0-12.779-1.041-16.146-2.477
				c-0.08-1.393-0.147-2.789-0.238-4.179l-1.046-12.899c4.486,1.835,10.284,3.171,17.43,3.171c0.512,0,1.536,0,2.048,0
				c6.866,0,12.397-0.886,16.383-2.536c-0.793,12.107-1.12,24.213-1.02,36.32c-3.212,1.741-8.967,3.08-17.411,3.08
				c-1.536,0-2.56,1.024-2.56,2.56s1.024,2.56,2.56,2.56c7.21,0,13.147-0.954,17.486-2.664c0.218,11.446,0.815,22.893,1.772,34.339
				c-2.133,2.081-7.153,3.794-15.674,4.164c-1.536,0-2.56,1.024-2.56,2.56c0,1.536,1.024,2.56,2.56,2.56
				c7.835-0.402,12.902-1.83,16.178-3.601c0.339,3.606,0.716,7.213,1.123,10.819c-0.261,0.405-0.405,0.909-0.405,1.485
				c0,2.048-2.56,4.096-7.168,5.12c-1.024,0.512-2.048,1.536-1.536,3.072c0.512,1.536,1.536,2.048,2.56,2.048c0,0,0,0,0.512,0
				c3.054-0.848,5.251-1.98,6.842-3.204c1.725,12.841,6.758,25.616,14.662,36.484l10.24,14.336c1.024,1.536,2.56,2.048,4.096,2.048
				c1.024,0,2.048,0,3.072-0.512c2.048-1.536,2.56-4.608,1.024-7.168l-10.24-14.336c-3.587-4.868-6.404-10.248-8.517-15.885
				c0.141-0.326,0.255-0.662,0.325-1.011c2.048-20.992,7.168-42.496,11.776-61.44l4.747-19.327L280.625,94
				c-3.072,23.04-1.536,46.592,4.096,69.632l9.216,35.84c5.632,22.016,7.168,44.032,5.632,66.56l-1.024,15.872
				c-2.56,32.768,15.872,64.512,45.568,78.336l7.68,3.584c14.336,6.656,27.648,14.336,40.448,23.552
				c0.512,0.512,1.024,0.512,1.536,0.512c0.512,0,1.536-0.512,1.536-1.024c1.024-1.024,0.512-2.56-0.512-3.584
				c-12.8-9.216-26.624-17.408-40.96-24.064l-7.68-3.584c-27.648-12.8-45.056-42.496-42.496-73.216l1.024-15.872
				c2.048-23.04,0-46.08-5.632-68.096l-9.216-35.84c-5.632-22.016-7.168-45.056-4.096-67.584l4.421-33.894
				c0.693-0.377,1.434-0.693,2.235-0.922c3.584-1.024,7.168,0,9.728,2.56l65.536,62.976c29.184,27.136,49.152,61.952,57.856,100.352
				l1.625,6.827c0.057,22.191-8.613,43.681-24.666,59.733l-4.608,4.608c-1.024,1.024-1.024,2.56,0,3.584
				c0.512,0.512,1.536,0.512,2.048,0.512c0.512,0,1.536-0.512,1.536-0.512l4.608-4.608c13.14-13.485,21.601-30.009,24.769-47.831
				l2.367,9.943c8.192,33.792,12.8,69.12,14.848,103.936l3.072,56.832C451.633,422.704,449.585,426.288,446.513,428.336z"/>
			<path d="M180.273,218.928c-1.024,0-2.56,1.024-2.56,2.56c-1.536,19.456-4.096,38.912-7.68,57.856l-2.56,12.8
				c-4.608,25.6-22.528,46.592-46.592,55.808l-11.264,4.096c-11.264,4.608-22.528,9.728-32.768,16.384
				c-1.536,1.024-1.536,2.56-1.024,3.584c0.512,0.512,1.024,1.024,2.048,1.024c0.512,0,1.024,0,1.536-1.024
				c9.728-6.656,20.48-11.776,31.744-15.872l11.264-4.096c26.112-9.728,45.056-32.256,50.176-59.392l2.56-12.8
				c3.584-19.456,6.144-38.912,7.68-58.368C182.833,220.464,181.809,218.928,180.273,218.928z"/>
			<path d="M69.681,373.04c-1.536,1.024-2.56,1.536-3.584,2.56c-1.024,1.024-1.536,2.56-0.512,3.584
				c0.512,0.512,1.024,1.024,2.048,1.024c0.512,0,1.024-0.512,1.536-0.512c1.536-1.024,2.56-1.536,3.584-2.56
				c1.024-1.024,1.536-2.56,0.512-3.584S70.705,372.016,69.681,373.04z"/>
			<path d="M408.112,392.496c-1.024-0.512-2.56-0.512-3.584,0.512c-0.512,1.024-0.512,2.56,0.512,3.584l11.264,9.216
				c0.512,0.512,1.024,0.512,1.536,0.512s1.536,0,2.048-1.024c0.512-1.024,0.512-2.56-0.512-3.584L408.112,392.496z"/>
			<path d="M427.568,408.368c-1.024-0.512-2.56-0.512-3.584,0.512c-0.512,1.024-0.512,2.56,0.512,3.584l6.656,5.632
				c0.512,0.512,1.024,0.512,1.536,0.512c1.024,0,1.536,0,2.048-1.024c0.512-1.024,0.512-2.56-0.512-3.584L427.568,408.368z"/>
			<path d="M440.369,419.12c-1.024-0.512-2.56-0.512-3.584,0.512c-0.512,1.024-0.512,2.56,0.512,3.584l2.56,2.048
				c0.512,0.512,1.024,0.512,1.536,0.512c0.512,0,1.536-0.512,2.048-1.024c0.512-1.024,0.512-2.56-0.512-3.584L440.369,419.12z"/>
			<path d="M358.448,337.2l-3.072,3.072c-1.024,1.024-1.024,2.56,0,3.584c0.512,0.512,1.536,0.512,2.048,0.512
				c0.512,0,1.024-0.512,1.536-0.512l3.072-3.072c1.024-1.024,1.024-2.56,0-3.584S359.472,336.176,358.448,337.2z"/>
			<path d="M369.712,325.424l-5.632,5.632c-1.024,1.024-1.024,2.56,0,3.584c0.512,0.512,1.536,0.512,2.048,0.512
				c0.512,0,1.024,0,1.536-0.512l5.632-5.632c1.024-1.024,1.024-2.56,0-3.584C372.273,324.4,370.736,324.4,369.712,325.424z"/>
			<path d="M386.609,308.528l-9.216,9.216c-1.024,1.024-1.024,2.56,0,3.584c0.512,0.512,1.536,0.512,2.048,0.512
				c0.512,0,1.024,0,1.536-0.512l9.216-9.216c1.024-1.024,1.024-2.56,0-3.584S387.633,307.504,386.609,308.528z"/>
			<path d="M66.609,349.488c1.024-1.024,1.024-2.56,0-3.584l-6.656-6.656c-1.024-1.024-2.56-1.024-3.584,0s-1.024,2.56,0,3.584
				l6.656,6.656C63.536,350,64.561,350,65.072,350C65.585,350,66.609,350,66.609,349.488z"/>
			<path d="M46.129,322.352c-1.024-1.024-2.56-1.536-3.584-0.512c-1.024,1.024-1.536,2.56-0.512,3.584
				c2.048,2.56,4.096,5.632,6.144,8.192c0.512,0.512,1.536,1.024,2.048,1.024c1.024,0,1.536-0.512,1.536-1.024
				c1.024-1.024,1.536-2.56,0.512-3.584C50.225,327.984,48.176,324.912,46.129,322.352z"/>
			<path d="M123.952,267.568c4.608-0.512,8.704-1.536,12.288-2.56c1.536-0.512,2.56-1.536,2.048-3.072s-1.536-2.56-3.072-2.048
				c-4.096,1.024-7.68,2.048-11.776,2.56c-1.536,0.512-2.048,1.536-2.048,3.072C121.393,266.544,122.929,267.568,123.952,267.568z"
				/>
			<path d="M146.992,261.424c0.512,0,1.024,0,1.024,0c2.56-1.024,5.12-2.048,7.168-3.072c1.024-1.024,1.536-2.56,1.024-3.584
				c-1.024-1.024-2.56-1.536-3.584-1.024c-2.048,1.024-4.608,2.048-6.656,3.072c-1.536,0.512-2.048,1.536-1.536,3.072
				C144.945,260.912,145.968,261.424,146.992,261.424z"/>
			<path d="M160.304,255.28c0.512,0,1.024,0,1.536-0.512c1.024-0.512,1.536-1.024,2.56-1.536c1.024-1.024,1.536-2.56,0.512-3.584
				s-2.56-1.536-3.584-0.512c-0.512,0.512-1.536,1.024-2.048,1.536c-1.536,1.024-1.536,2.56-1.024,3.584
				C158.769,254.768,159.281,255.28,160.304,255.28z"/>
			<path d="M239.665,66.352c1.024-0.512,1.536-0.512,2.048-0.512c1.536-0.512,2.56-1.536,2.048-3.072
				c-0.512-1.536-1.536-2.56-3.072-2.048c-0.512,0.512-1.024,0.512-1.536,0.512c-1.536,0.512-2.048,1.536-2.048,3.072
				C237.105,65.328,238.64,66.352,239.665,66.352z"/>
			<path d="M224.817,82.224c-1.024,0-2.048-0.512-3.072-0.512c-1.536-0.512-3.072,0.512-3.072,2.048
				c-0.512,1.536,0.512,3.072,2.048,3.072c1.024,0.512,2.048,0.512,3.584,0.512c1.024,0,2.048-1.024,3.072-2.56
				C227.377,83.76,226.352,82.224,224.817,82.224z"/>
			<path d="M231.985,105.264c0-1.536-1.024-2.56-2.56-2.56c-2.048,0-3.584,0-5.12,0c-1.024,0-2.56,1.024-2.56,2.56
				c0,1.024,1.024,2.56,2.56,2.56c2.048,0,3.584,0,5.632,0C231.473,107.824,231.985,106.8,231.985,105.264z"/>
			<path d="M238.129,107.312c1.024,0,1.536,0,2.56-0.512c1.536-0.512,2.048-1.536,2.048-3.072c-0.512-1.536-1.536-2.048-3.072-2.048
				c-0.512,0.512-1.536,0.512-2.048,0.512c-1.024,0.512-2.048,1.536-2.048,3.072C235.569,106.288,237.104,107.312,238.129,107.312z"
				/>
			<path d="M225.84,123.184c-1.024-0.512-2.048-0.512-3.072-0.512c-1.536-0.512-3.072,0.512-3.072,2.048
				c-0.512,1.536,0.512,3.072,2.048,3.072c1.024,0.512,2.048,0.512,3.584,0.512c1.024,0,2.56-1.024,3.072-2.56
				C228.4,124.72,227.376,123.184,225.84,123.184z"/>
			<path d="M223.792,143.152c-1.024,0-2.56-0.512-3.584-0.512c-1.536-0.512-3.072,0.512-3.072,2.048
				c-0.512,1.536,0.512,3.072,2.048,3.072s3.072,0.512,4.608,0.512c1.536,0,2.56-0.512,2.56-2.56
				C226.352,144.688,225.328,143.152,223.792,143.152z"/>
		</g>
	</g>
</g>
<g>
</g>
<g>
</g>
<g>
</g>
<g>
</g>
<g>
</g>
<g>
</g>
<g>
</g>
<g>
</g>
<g>
</g>
<g>
</g>
<g>
</g>
<g>
</g>
<g>
</g>
<g>
</g>
<g>
</g>
</svg>
