<?xml version="1.0" encoding="iso-8859-1"?>
<!-- Generator: Adobe Illustrator 18.0.0, SVG Export Plug-In . SVG Version: 6.00 Build 0)  -->
<!DOCTYPE svg PUBLIC "-//W3C//DTD SVG 1.1//EN" "http://www.w3.org/Graphics/SVG/1.1/DTD/svg11.dtd">
<svg version="1.1" id="Capa_1" xmlns="http://www.w3.org/2000/svg" xmlns:xlink="http://www.w3.org/1999/xlink" x="0px" y="0px"
	 viewBox="0 0 496.38 496.38" style="enable-background:new 0 0 496.38 496.38;" xml:space="preserve">
<g>
	<path d="M493.956,68.747c-1.512-2.054-4.461-4.502-9.932-4.502c-5.166,0-10.383,2.191-12.65,3.486
		c-5.202,2.969-11.033,6.481-17.207,10.2c-40.077,24.138-105.276,63.395-212.177,84.258
		c-43.152-63.893-82.786-123.285-83.186-123.884c-1.303-1.953-3.941-2.48-5.895-1.176c-1.952,1.303-2.479,3.941-1.176,5.894
		c0.392,0.589,38.796,58.137,81.158,120.881c-5.145,0.932-10.378,1.825-15.711,2.668c-0.934,0.148-1.905,0.293-2.877,0.439
		c-41.423-60.487-88.633-127.776-89.108-128.455c-1.349-1.921-3.999-2.386-5.921-1.038c-1.921,1.349-2.386,3.999-1.037,5.92
		c0.467,0.666,45.875,65.386,86.677,124.907c-1.292,0.177-2.599,0.355-3.928,0.535c-7.862,1.068-16.379,2.226-25.19,3.691
		c-13.92-48.719-40.868-53.897-42.027-54.096c-0.9-0.155-1.828-0.016-2.643,0.398c-0.98,0.498-24.323,12.438-51.366,35.053
		c-25.049,20.947-57.924,55.321-72.293,100.117c-13.597,42.388-8.613,86.66,14.813,131.586
		c20.002,38.36,50.146,62.169,89.592,70.764c11.525,2.511,23.283,3.576,34.941,3.576c32.853,0,64.893-8.457,88.547-16.824
		c36.981-13.081,64.47-29.592,70.299-34.126c0.885-0.688,1.463-1.699,1.605-2.811c0.077-0.594,1.815-14.728-3.569-30.423
		c-4.837-14.097-16.457-31.963-44.275-38.746c2.165-9.639,2.246-19.582,0.137-29.426l-0.267-1.235
		c-1.795-8.304-4.253-19.678,0.553-26.673c2.607-3.795,7.175-6.153,13.964-7.207c0.459-0.071,1.033-0.154,1.707-0.249
		c27.663,44.794,46.378,79.12,55.623,102.034c0.668,1.655,2.261,2.661,3.942,2.661c0.529,0,1.067-0.1,1.589-0.31
		c2.177-0.878,3.229-3.355,2.352-5.532c-9.212-22.831-27.507-56.552-54.397-100.274c6.266-1.063,12.451-2.301,18.543-3.73
		c29.015,41.925,49.197,70.024,59.989,83.514c0.839,1.049,2.074,1.595,3.321,1.595c0.931,0,1.869-0.305,2.652-0.931
		c1.833-1.466,2.13-4.141,0.664-5.974c-10.447-13.058-29.895-40.108-57.828-80.428c22.688-6.073,44.082-14.728,63.896-25.91
		c57.621-32.519,97.497-83.207,118.523-150.657C497.179,79.336,497.04,72.938,493.956,68.747z M298.998,403.357
		c-16.066,11.115-108.046,61.567-185.315,44.73c-36.866-8.033-65.083-30.37-83.864-66.389
		C7.49,338.875,2.689,296.814,15.548,256.682c13.716-42.803,45.36-75.879,69.491-96.09c22.645-18.965,43.106-30.476,48.534-33.399
		c4.886,1.591,23.001,9.866,33.804,46.867c-28.169,5.286-58.149,14.302-78.897,33.896c-18.774,17.729-37.277,53.386-36.297,93.077
		c0.785,31.775,14.194,59.681,38.778,80.702c19.349,16.542,43.031,25.287,68.489,25.287c32.831,0,65.208-14.82,84.494-38.678
		c5.846-7.232,10.235-15.028,13.111-23.133C299.784,355.412,299.617,394.425,298.998,403.357z M486.268,85.776
		c-2.195,7.044-4.591,13.799-7.149,20.303h-15.402c-2.348,0-4.25,1.903-4.25,4.25c0,2.347,1.902,4.25,4.25,4.25h11.894
		c-49.852,115.445-155.263,142.756-200.733,149.175c-0.968,0.137-1.763,0.249-2.373,0.344c-9.101,1.413-15.717,5.044-19.666,10.793
		c-6.884,10.019-3.978,23.465-1.855,33.282l0.264,1.221c5.096,23.779-4.752,42.276-13.911,53.605
		c-17.712,21.911-47.556,35.522-77.884,35.522c-23.404,0-45.178-8.039-62.966-23.247c-18.158-15.526-29.705-35.109-33.973-57.318
		h39.481c2.348,0,4.25-1.903,4.25-4.25c0-2.347-1.902-4.25-4.25-4.25H61.247c-0.302-2.841-0.494-5.719-0.566-8.633
		c-0.148-5.958,0.198-11.837,0.941-17.578h27.061c2.347,0,4.25-1.903,4.25-4.25c0-2.347-1.903-4.25-4.25-4.25H63.031
		c5.28-26.177,18.528-48.563,31.285-60.61c27.446-25.92,73.898-32.228,107.816-36.833c5.844-0.793,11.363-1.543,16.377-2.336
		c123.415-19.513,196.423-63.483,240.043-89.754c6.131-3.692,11.921-7.179,17.036-10.1c1.604-0.915,5.312-2.368,8.437-2.368
		c1.539,0,2.577,0.35,3.085,1.04C487.587,74.433,488.937,77.215,486.268,85.776z"/>
	<path d="M121.532,278.69c31.622-11.594,26.537-37.891,26.483-38.155c-0.477-2.287-2.708-3.748-4.996-3.285
		c-2.29,0.461-3.776,2.698-3.331,4.991c0.153,0.791,3.477,19.464-21.081,28.468c-2.204,0.808-3.335,3.25-2.527,5.453
		c0.631,1.721,2.259,2.788,3.991,2.788C120.555,278.951,121.049,278.867,121.532,278.69z"/>
	<path d="M195.898,338.865c-1.866-1.42-4.534-1.059-5.956,0.809c-9.229,12.13-19.622,18.713-30.891,19.567
		c-18.548,1.401-33.879-13.152-34.116-13.381c-1.682-1.635-4.37-1.6-6.006,0.08c-1.639,1.681-1.604,4.371,0.076,6.01
		c0.696,0.679,16.548,15.889,37.464,15.889c1.037,0,2.088-0.038,3.148-0.116c13.825-1.022,26.305-8.728,37.089-22.902
		C198.128,342.952,197.766,340.286,195.898,338.865z"/>
	<path d="M225.786,240.712c-0.906-2.165-3.395-3.186-5.561-2.279c-2.165,0.906-3.186,3.396-2.279,5.561
		c0.157,0.375,15.357,37.639-12.471,53.661c-2.034,1.171-2.733,3.77-1.563,5.804c0.787,1.366,2.217,2.13,3.688,2.13
		c0.719,0,1.448-0.183,2.116-0.567c14.276-8.22,21.551-22.078,21.036-40.076C230.376,251.82,225.973,241.16,225.786,240.712z"/>
	<path d="M411.516,166.688c-0.491,0.501-49.686,50.165-103.256,60.299c-2.306,0.436-3.822,2.66-3.386,4.966
		c0.386,2.04,2.169,3.461,4.171,3.461c0.263,0,0.528-0.024,0.795-0.075c56.165-10.625,105.665-60.579,107.745-62.701
		c1.644-1.676,1.616-4.367-0.06-6.01C415.849,164.985,413.159,165.012,411.516,166.688z"/>
</g>
<g>
</g>
<g>
</g>
<g>
</g>
<g>
</g>
<g>
</g>
<g>
</g>
<g>
</g>
<g>
</g>
<g>
</g>
<g>
</g>
<g>
</g>
<g>
</g>
<g>
</g>
<g>
</g>
<g>
</g>
</svg>
