<?xml version="1.0" encoding="iso-8859-1"?>
<!-- Generator: Adobe Illustrator 19.0.0, SVG Export Plug-In . SVG Version: 6.00 Build 0)  -->
<svg version="1.1" id="Layer_1" xmlns="http://www.w3.org/2000/svg" xmlns:xlink="http://www.w3.org/1999/xlink" x="0px" y="0px"
	 viewBox="0 0 412.798 412.798" style="enable-background:new 0 0 412.798 412.798;" xml:space="preserve">
<g>
	<g>
		<g>
			<path d="M286.228,349.31c-1.024,0.512-2.56,0.512-3.584,1.024c-3.072,0.512-4.608,3.584-4.096,6.144
				c0.512,2.56,2.56,4.096,5.12,4.096c0.512,0,1.024,0,1.024,0c2.048-0.512,4.096-1.024,5.632-2.048
				c2.56-1.024,3.584-4.096,2.56-6.656C291.86,349.31,288.788,348.286,286.228,349.31z"/>
			<path d="M344.166,254.315c6.912-7.553,9.835-20.631,11.182-30.957c1.536-10.752,0.512-22.528-1.536-34.816l-4.096-22.528
				c-10.24-56.32-43.52-106.496-91.136-138.24l-10.24-6.656C197.14-13.186,129.556-4.994,88.084,40.574l-7.168,8.192
				c-33.28,36.352-33.28,90.624-0.512,126.976l23.04,25.6c0.069,0.069,0.143,0.133,0.214,0.198
				c-3.067,22.152-1.243,42.735,1.051,59.315c-8.46,4.773-17.661,8.226-26.865,9.607c-0.816,0.163-1.579,0.588-2.225,1.172
				c-7.512,3.584-10.843,15.095-7.503,27.5c3.072,11.264,11.264,18.944,19.456,18.944c1.024,0,2.048-0.512,2.56-0.512
				c0.512,0,1.536-0.512,2.048-0.512l9.728-4.608c18.041-8.777,34.68-21.741,47.282-37.992c4.882-0.74,10.122-1.413,15.68-1.896
				c0.138,0.348,0.305,0.681,0.526,0.976c11.264,15.872,21.504,32.256,30.208,49.664l33.792,67.072
				c6.144,11.776,16.896,19.968,30.208,22.016c2.56,0.512,4.608,0.512,6.656,0.512c10.752,0,20.992-4.096,29.184-12.288l5.12-5.12
				c28.16-28.672,47.616-65.024,55.808-104.448c0.056-0.334,0.076-0.66,0.073-0.98c0.279-0.623,0.439-1.326,0.439-2.092
				C357.265,272.993,352.812,261.245,344.166,254.315z M77.332,296.062c-1.634-6.534-0.659-12.08,1.101-14.321
				c1.109,0.153,4.587,3.748,7.091,11.761c2.56,7.68,1.536,13.312,0.512,13.824c-0.089,0.044-0.176,0.097-0.263,0.149
				C83.282,306.322,79.276,302.671,77.332,296.062z M292.372,387.71l-5.12,5.12c-7.168,7.168-16.896,10.24-26.624,8.704
				c-9.728-1.536-17.92-7.68-22.528-16.384l-33.792-67.072c-7.894-15.788-17.065-31.562-27.485-46.204
				c14.226-0.381,30.068,0.804,46.941,5.244c0.512,0,1.024,0,1.536,0c2.56,0,4.608-1.536,4.608-3.072
				c0.512-2.56-1.024-5.632-3.584-6.144c-29.533-7.876-56.224-6.286-76.894-3.422c-2.089-1.061-5.165-0.487-6.562,1.374
				c-11.776,15.872-27.648,28.672-45.568,37.376l-5.237,2.619c0.046-0.344,0.086-0.704,0.117-1.083c0.512-3.584,0-7.68-1.536-12.288
				c-1.448-4.924-3.88-9.683-6.739-12.611c10.014-2.327,20.237-6.548,29.267-11.965c2.048-1.536,3.072-4.608,1.536-7.168
				c-0.023-0.031-0.05-0.06-0.074-0.091c-2.534-20.418-4.971-47.799,2.634-75.685c0.512-2.56-1.024-5.632-3.584-6.144
				c-2.56-0.512-5.632,1.024-6.144,3.584c-0.592,2.183-1.122,4.357-1.605,6.522l-17.851-19.834
				c-29.696-32.256-29.184-80.896,0-113.152l7.168-8.192C133.14,6.27,195.092-1.41,242.196,30.334l10.24,6.656
				c45.568,30.208,77.312,78.336,87.04,131.584l4.096,22.528c2.048,11.264,2.56,22.016,1.536,31.744
				c-1.536,13.312-5.632,22.528-10.24,26.112c-0.098,0.073-0.175,0.166-0.266,0.246c-0.253-0.082-0.502-0.169-0.758-0.246
				c-8.192-2.56-20.992-1.536-30.208,6.656c-7.68,6.656-11.264,16.896-9.216,28.16c5.12,29.696,4.608,47.616,0,57.344
				c-1.536,2.048-0.512,5.632,2.048,6.656c1.024,0.512,1.536,0.512,2.56,0.512c1.536,0,3.584-1.024,5.12-2.56
				c5.632-11.776,6.144-31.232,1.024-63.488c-1.536-7.68,0.512-13.824,5.632-18.432c5.632-5.12,14.848-6.144,19.968-4.608
				c13.652,4.551,16.316,17.588,15.887,28.267c-0.246,0.447-0.427,0.927-0.527,1.429C337.94,326.27,319.508,360.574,292.372,387.71z
				"/>
			<path d="M254.484,300.67c-0.512-1.536-1.536-2.56-3.072-2.048c-1.536,0.512-2.56,1.536-2.048,3.072l0.512,1.536
				c0.512,1.024,1.536,2.048,2.56,2.048c2.048-0.512,3.072-1.536,2.56-2.56C254.996,302.718,254.484,301.694,254.484,300.67z"/>
			<path d="M251.924,290.43c-0.512-3.072-1.536-6.144-2.56-9.728c-0.512-1.024-1.536-2.048-3.072-1.536
				c-1.024,0.512-2.048,1.536-1.536,3.072c1.024,3.072,2.048,6.656,2.56,9.216c0.512,1.536,1.536,2.048,2.56,2.048
				C251.412,292.99,252.436,291.966,251.924,290.43z"/>
			<path d="M244.756,267.39c-8.192-21.504-23.04-49.152-47.104-60.416c-20.992-9.728-38.4-20.992-51.712-33.28
				c-1.024-1.024-2.56-1.024-3.584,0c-1.024,1.024-1.024,2.56,0,3.584c13.312,12.8,31.232,24.064,52.736,34.304
				c22.528,10.24,36.864,36.864,44.544,57.344c0.512,1.024,1.536,1.536,2.56,1.536c0.512,0,1.024,0,1.024,0
				C244.756,269.95,245.268,268.926,244.756,267.39z"/>
			<path d="M136.212,171.646c0.512,0.512,1.536,1.024,2.048,1.024c1.024,0,1.536-0.512,2.048-0.512c1.024-1.024,1.024-2.56,0-3.584
				c-2.56-2.56-4.608-5.12-6.656-7.68c-1.024-1.024-2.56-1.536-3.584-0.512c-1.024,1.024-1.536,2.56-0.512,3.584
				C131.604,166.526,133.652,169.086,136.212,171.646z"/>
			<path d="M121.876,152.19c1.024,1.024,1.536,2.048,2.048,3.072c0.512,0.512,1.024,1.024,2.048,1.024c0.512,0,1.024,0,1.024,0
				c1.536-1.024,1.536-2.56,1.024-3.584c-0.512-1.024-1.024-2.048-1.536-3.072c-1.024-1.024-2.56-1.536-3.584-1.024
				C121.876,149.63,121.364,151.166,121.876,152.19z"/>
			<path d="M120.852,143.998c1.024-0.512,2.048-1.536,1.536-3.072c-0.512-1.024-0.512-2.048-0.512-2.048
				c-0.512-1.536-1.536-2.048-3.072-2.048c-1.536,0.512-2.048,1.536-2.048,3.072c0,0,0.512,1.024,1.024,3.072
				c0.512,1.024,1.536,1.536,2.56,1.536C120.34,144.51,120.852,144.51,120.852,143.998z"/>
			<path d="M219.156,56.958c1.536,0,2.56-1.024,2.56-2.048c0-2.048,0-3.584,0.512-5.632c0.512-1.536-0.512-3.072-2.048-3.072
				c-1.536-0.512-3.072,0.512-3.072,2.048c0,2.048-0.512,4.096-0.512,6.144C216.596,55.934,217.62,56.958,219.156,56.958z"/>
			<path d="M219.668,63.614c-1.536,0.512-2.56,1.536-2.048,3.072c1.536,5.12,4.096,9.728,8.192,13.824
				c0.512,0.512,1.536,1.024,2.048,1.024c0.512,0,1.024-0.512,1.536-0.512c1.024-1.024,1.024-2.56,0-3.584
				c-3.584-3.584-5.632-7.168-6.656-11.776C222.228,64.126,221.204,63.102,219.668,63.614z"/>
			<path d="M293.908,176.254c0.512,13.824,3.584,16.384,10.752,22.016c3.072,2.048,6.656,5.12,11.264,10.24
				c7.168,7.68,0,24.064,0,24.064c-0.512,1.536,0,3.072,1.536,3.584c0.512,0,0.512,0,1.024,0c1.024,0,2.048-0.512,2.048-1.536
				c0.512-0.512,8.192-19.456-1.024-29.696c-5.12-5.12-9.216-8.192-12.288-10.752c-6.144-4.608-8.192-6.656-8.704-18.432
				c-0.037-0.961-0.13-1.881-0.265-2.77c0.395-0.498,0.508-1.109,0.265-1.838c0,0-1.536-10.752,4.096-15.872
				c3.072-2.56,7.168-3.072,13.312-1.536c1.536,0,2.56-0.512,3.072-2.048c0-1.536-0.512-2.56-2.048-3.072
				c-7.68-1.536-13.824-0.512-17.92,3.072c-3.299,2.859-4.8,6.945-5.443,10.718c-3.939-4.904-9.661-8.243-15.037-11.23
				c-5.632-3.072-10.752-6.144-12.8-10.752c-2.048-4.608-1.024-9.728-0.512-14.848c1.024-8.192,2.56-17.408-6.656-26.112
				c-4.608-4.608-10.24-8.192-15.36-11.776l-2.048-1.536c-1.024-1.024-2.56-0.512-3.584,0.512c-1.024,1.024-0.512,2.56,0.512,3.584
				l2.048,1.536c5.12,3.584,10.24,6.656,14.848,11.264c7.168,7.168,6.144,13.824,5.12,22.016
				c-0.512,5.632-1.536,11.776,1.024,17.408c2.56,6.144,8.704,9.728,15.36,13.312C285.204,160.894,293.396,165.502,293.908,176.254z
				"/>
			<path d="M220.692,245.374c-20.513-6.279-37.601-6.055-52.388-4.365c0.813-1.856,1.595-3.822,2.212-5.875l5.632-14.336
				c1.024-2.56-0.512-5.632-3.072-6.656s-5.632,0.512-6.656,3.072l-5.632,14.336c-2.048,4.608-4.096,8.704-5.632,12.288
				c-0.251,0.626-0.375,1.284-0.388,1.934c-0.206,0.71-0.266,1.455-0.124,2.162c0,2.56,3.072,4.608,5.632,4.096
				c16.384-2.56,34.304-4.608,57.344,2.56c0.512,0,1.024,0,1.536,0c2.56,0,4.096-1.536,5.12-3.072
				C224.788,248.958,223.252,246.398,220.692,245.374z"/>
			<path d="M152.084,202.366c-2.56-1.024-5.632,0-6.656,2.56l-9.728,20.992c-1.094,2.626-2.384,5.246-3.812,7.792
				c-1.689-11.76-1.293-24.605,4.836-42.608c1.024-2.56-0.512-5.632-3.072-6.656c-2.56-1.024-5.632,0.512-6.656,3.072
				c-9.728,26.624-6.656,43.52-3.072,59.904c0.512,2.56,2.56,4.096,5.12,4.096c0.512,0,1.024,0,1.024,0
				c0.105-0.018,0.204-0.045,0.306-0.069c1.248-0.15,2.437-0.626,3.278-1.467c4.608-6.144,8.704-12.8,11.776-19.968l9.216-20.992
				C155.668,206.462,154.644,203.39,152.084,202.366z"/>
		</g>
	</g>
</g>
<g>
</g>
<g>
</g>
<g>
</g>
<g>
</g>
<g>
</g>
<g>
</g>
<g>
</g>
<g>
</g>
<g>
</g>
<g>
</g>
<g>
</g>
<g>
</g>
<g>
</g>
<g>
</g>
<g>
</g>
</svg>
