<svg height="496pt" viewBox="0 0 496 496" width="496pt" xmlns="http://www.w3.org/2000/svg"><path d="m456 208h-56v-168c0-22.054688-17.945312-40-40-40h-224c-22.054688 0-40 17.945312-40 40v168h-56c-22.054688 0-40 17.945312-40 40v208c0 22.054688 17.945312 40 40 40h112c22.054688 0 40-17.945312 40-40v-8h112v8c0 22.054688 17.945312 40 40 40h112c22.054688 0 40-17.945312 40-40v-208c0-22.054688-17.945312-40-40-40zm-280 248c0 13.230469-10.769531 24-24 24h-112c-13.230469 0-24-10.769531-24-24v-208c0-13.230469 10.769531-24 24-24h112c13.230469 0 24 10.769531 24 24zm128-208v184h-112v-184c0-22.054688-17.945312-40-40-40h-40v-168c0-13.230469 10.769531-24 24-24h224c13.230469 0 24 10.769531 24 24v168h-40c-22.054688 0-40 17.945312-40 40zm176 208c0 13.230469-10.769531 24-24 24h-112c-13.230469 0-24-10.769531-24-24v-208c0-13.230469 10.769531-24 24-24h112c13.230469 0 24 10.769531 24 24zm0 0"/><path d="m96 336c-35.289062 0-64 28.710938-64 64s28.710938 64 64 64 64-28.710938 64-64-28.710938-64-64-64zm0 112c-26.472656 0-48-21.527344-48-48s21.527344-48 48-48 48 21.527344 48 48-21.527344 48-48 48zm0 0"/><path d="m96 368c-17.648438 0-32 14.351562-32 32s14.351562 32 32 32 32-14.351562 32-32-14.351562-32-32-32zm0 48c-8.824219 0-16-7.175781-16-16s7.175781-16 16-16 16 7.175781 16 16-7.175781 16-16 16zm0 0"/><path d="m96 320c22.054688 0 40-17.945312 40-40s-17.945312-40-40-40-40 17.945312-40 40 17.945312 40 40 40zm0-64c13.230469 0 24 10.769531 24 24s-10.769531 24-24 24-24-10.769531-24-24 10.769531-24 24-24zm0 0"/><path d="m400 336c-35.289062 0-64 28.710938-64 64s28.710938 64 64 64 64-28.710938 64-64-28.710938-64-64-64zm0 112c-26.472656 0-48-21.527344-48-48s21.527344-48 48-48 48 21.527344 48 48-21.527344 48-48 48zm0 0"/><path d="m400 368c-17.648438 0-32 14.351562-32 32s14.351562 32 32 32 32-14.351562 32-32-14.351562-32-32-32zm0 48c-8.824219 0-16-7.175781-16-16s7.175781-16 16-16 16 7.175781 16 16-7.175781 16-16 16zm0 0"/><path d="m400 320c22.054688 0 40-17.945312 40-40s-17.945312-40-40-40-40 17.945312-40 40 17.945312 40 40 40zm0-64c13.230469 0 24 10.769531 24 24s-10.769531 24-24 24-24-10.769531-24-24 10.769531-24 24-24zm0 0"/><path d="m368 32h-240v80h240zm-16 64h-208v-48h208zm0 0"/><path d="m248 128c-26.472656 0-48 21.527344-48 48s21.527344 48 48 48 48-21.527344 48-48-21.527344-48-48-48zm8 78.863281v-30.863281h-16v30.863281c-13.769531-3.574219-24-15.992187-24-30.863281 0-17.648438 14.351562-32 32-32s32 14.351562 32 32c0 14.871094-10.230469 27.289062-24 30.863281zm0 0"/><path d="m208 240h80v16h-80zm0 0"/><path d="m208 272h80v16h-80zm0 0"/><path d="m248 336c-22.054688 0-40 17.945312-40 40s17.945312 40 40 40 40-17.945312 40-40-17.945312-40-40-40zm0 64c-13.230469 0-24-10.769531-24-24s10.769531-24 24-24 24 10.769531 24 24-10.769531 24-24 24zm0 0"/><path d="m208 304h80v16h-80zm0 0"/></svg>